<?xml version="1.0" encoding="utf-8"?>
<svg width="1440" height="1024" viewBox="0 0 1440 1024" fill="none" xmlns="http://www.w3.org/2000/svg">
  <path d="M 698.949 48.575 L 612.401 135.122 L 569.127 91.849 L 525.853 135.122 L 482.579 91.849 L 439.305 48.575 L 482.579 5.3 L 525.853 48.575 L 439.305 135.122 L 396.031 91.849 L 352.756 135.122 L 266.209 48.575 M 698.949 48.575 L 742.224 5.3 M 698.949 48.575 L 655.676 5.3 L 612.401 48.575 M 612.401 48.575 L 655.676 91.849 L 698.949 135.122 L 742.224 91.849 M 612.401 48.575 L 569.127 5.3 M 352.756 48.575 L 309.483 5.3 L 266.209 48.575 M 352.756 48.575 L 309.483 91.849 L 266.209 135.122 L 222.934 91.849 L 179.66 135.122 L 93.112 48.575 L 136.387 5.3 L 179.66 48.575 L 93.112 135.122 L 49.838 91.849 M 352.756 48.575 L 396.031 5.3 M 266.209 48.575 L 222.934 5.3" stroke="#FF000F" stroke-width="5" stroke-linecap="round" stroke-linejoin="round" style=""/>
  <path d="M 1391.72 48.575 L 1305.173 135.122 L 1261.893 91.849 L 1218.625 135.122 L 1175.345 91.849 L 1132.078 48.575 L 1175.345 5.3 L 1218.625 48.575 L 1132.078 135.122 L 1088.798 91.849 L 1045.527 135.122 L 958.979 48.575 M 1391.72 48.575 L 1435 5.3 M 1391.72 48.575 L 1348.44 5.3 L 1305.173 48.575 M 1305.173 48.575 L 1348.44 91.849 L 1391.72 135.122 L 1435 91.849 M 1305.173 48.575 L 1261.893 5.3 M 1045.527 48.575 L 1002.253 5.3 L 958.979 48.575 M 1045.527 48.575 L 1002.253 91.849 L 958.979 135.122 L 915.705 91.849 L 872.431 135.122 L 785.882 48.575 L 829.157 5.3 L 872.431 48.575 L 785.882 135.122 L 742.609 91.849 M 1045.527 48.575 L 1088.798 5.3 M 958.979 48.575 L 915.705 5.3" stroke="#FF000F" stroke-width="5" stroke-linecap="round" stroke-linejoin="round" style=""/>
  <path d="M 654.886 784.619 L 568.338 698.071 L 525.064 741.345 L 481.79 698.071 L 438.515 741.345 L 395.242 784.619 L 438.515 827.893 L 481.79 784.619 L 395.242 698.071 L 351.968 741.345 L 308.693 698.071 L 222.146 784.619 M 654.886 784.619 L 698.161 827.893 M 654.886 784.619 L 611.613 827.893 L 568.338 784.619 M 568.338 784.619 L 611.613 741.345 L 654.886 698.071 L 698.161 741.345 M 568.338 784.619 L 525.064 827.893 M 308.693 784.619 L 265.419 827.893 L 222.146 784.619 M 308.693 784.619 L 265.419 741.345 L 222.146 698.071 L 178.871 741.345 L 135.597 698.071 L 49.049 784.619 L 92.323 827.893 L 135.597 784.619 L 49.049 698.071 L 5.775 741.345 M 308.693 784.619 L 351.968 827.893 M 222.146 784.619 L 178.871 827.893" stroke="#FF000F" stroke-width="5" stroke-linecap="round" stroke-linejoin="round" style=""/>
  <path d="M 1347.657 784.619 L 1261.109 698.071 L 1217.83 741.345 L 1174.562 698.071 L 1131.282 741.345 L 1088.015 784.619 L 1131.282 827.893 L 1174.562 784.619 L 1088.015 698.071 L 1044.739 741.345 L 1001.464 698.071 L 914.916 784.619 M 1347.657 784.619 L 1390.937 827.893 M 1347.657 784.619 L 1304.377 827.893 L 1261.109 784.619 M 1261.109 784.619 L 1304.377 741.345 L 1347.657 698.071 L 1390.937 741.345 M 1261.109 784.619 L 1217.83 827.893 M 1001.464 784.619 L 958.19 827.893 L 914.916 784.619 M 1001.464 784.619 L 958.19 741.345 L 914.916 698.071 L 871.641 741.345 L 828.368 698.071 L 741.819 784.619 L 785.094 827.893 L 828.368 784.619 L 741.819 698.071 L 698.545 741.345 M 1001.464 784.619 L 1044.739 827.893 M 914.916 784.619 L 871.641 827.893" stroke="#FF000F" stroke-width="5" stroke-linecap="round" stroke-linejoin="round" style=""/>
  <path d="M 1391.561 135.316 L 1305.013 221.863 L 1348.281 265.138 L 1305.013 308.412 L 1348.281 351.685 L 1391.561 394.96 L 1434.828 351.685 L 1391.561 308.412 L 1305.013 394.96 L 1348.281 438.234 L 1305.013 481.508 L 1391.561 568.056 M 1391.561 135.316 L 1434.828 92.041 M 1391.561 135.316 L 1434.828 178.589 L 1391.561 221.863 M 1391.561 221.863 L 1348.281 178.589 L 1305.013 135.316 M 1391.561 221.863 L 1434.828 265.138 M 1391.561 481.508 L 1434.828 524.782 L 1391.561 568.056 M 1391.561 481.508 L 1348.281 524.782 L 1305.013 568.056 L 1348.281 611.33 L 1305.013 654.605 L 1391.561 741.152 L 1434.828 697.878 L 1391.561 654.605 L 1305.013 741.152 L 1348.281 784.427 M 1391.561 481.508 L 1434.828 438.234 M 1391.561 568.056 L 1434.828 611.33" stroke="#FF000F" stroke-width="5" stroke-linecap="round" stroke-linejoin="round" style=""/>
  <path d="M 48.422 91.253 L 134.969 177.8 L 91.696 221.075 L 134.969 264.348 L 91.696 307.622 L 48.422 350.897 L 5.147 307.622 L 48.422 264.348 L 134.969 350.897 L 91.696 394.171 L 134.969 437.444 L 48.422 523.993 M 48.422 91.253 L 5.147 47.978 M 48.422 91.253 L 5.147 134.526 L 48.422 177.8 M 48.422 177.8 L 91.696 134.526 L 134.969 91.253 M 48.422 177.8 L 5.147 221.075 M 48.422 437.444 L 5.147 480.719 L 48.422 523.993 M 48.422 437.444 L 91.696 480.719 L 134.969 523.993 L 91.696 567.267 L 134.969 610.542 L 48.422 697.089 L 5.147 653.815 L 48.422 610.542 L 134.969 697.089 L 91.696 740.364 M 48.422 437.444 L 5.147 394.171 M 48.422 523.993 L 5.147 567.267" stroke="#FF000F" stroke-width="5" stroke-linecap="round" stroke-linejoin="round" style=""/>
</svg>