<svg width="1440" height="1024" viewBox="0 0 1440 1024" fill="none" xmlns="http://www.w3.org/2000/svg">
<path d="M705.33 193.843L634.619 264.553L599.264 229.198L563.909 264.553L528.553 229.198L493.198 193.843L528.553 158.487L563.909 193.843L493.198 264.553L457.843 229.198L422.487 264.553L351.777 193.843M705.33 193.843L740.686 158.487M705.33 193.843L669.975 158.487L634.619 193.843M634.619 193.843L669.975 229.198L705.33 264.553L740.686 229.198M634.619 193.843L599.264 158.487M422.487 193.843L387.132 158.487L351.777 193.843M422.487 193.843L387.132 229.198L351.777 264.553L316.421 229.198L281.066 264.553L210.355 193.843L245.711 158.487L281.066 193.843L210.355 264.553L175 229.198M422.487 193.843L457.843 158.487M351.777 193.843L316.421 158.487" stroke="#FF000F" stroke-width="5" stroke-linecap="round" stroke-linejoin="round"/>
<path d="M1271.33 193.843L1200.62 264.553L1165.26 229.198L1129.91 264.553L1094.55 229.198L1059.2 193.843L1094.55 158.487L1129.91 193.843L1059.2 264.553L1023.84 229.198L988.487 264.553L917.777 193.843M1271.33 193.843L1306.69 158.487M1271.33 193.843L1235.97 158.487L1200.62 193.843M1200.62 193.843L1235.97 229.198L1271.33 264.553L1306.69 229.198M1200.62 193.843L1165.26 158.487M988.487 193.843L953.132 158.487L917.777 193.843M988.487 193.843L953.132 229.198L917.777 264.553L882.421 229.198L847.066 264.553L776.355 193.843L811.711 158.487L847.066 193.843L776.355 264.553L741 229.198M988.487 193.843L1023.84 158.487M917.777 193.843L882.421 158.487" stroke="#FF000F" stroke-width="5" stroke-linecap="round" stroke-linejoin="round"/>
<path d="M669.33 795.198L598.619 724.487L563.264 759.843L527.909 724.487L492.553 759.843L457.198 795.198L492.553 830.553L527.909 795.198L457.198 724.487L421.843 759.843L386.487 724.487L315.777 795.198M669.33 795.198L704.686 830.553M669.33 795.198L633.975 830.553L598.619 795.198M598.619 795.198L633.975 759.843L669.33 724.487L704.686 759.843M598.619 795.198L563.264 830.553M386.487 795.198L351.132 830.553L315.777 795.198M386.487 795.198L351.132 759.843L315.777 724.487L280.421 759.843L245.066 724.487L174.355 795.198L209.711 830.553L245.066 795.198L174.355 724.487L139 759.843M386.487 795.198L421.843 830.553M315.777 795.198L280.421 830.553" stroke="#FF000F" stroke-width="5" stroke-linecap="round" stroke-linejoin="round"/>
<path d="M1235.33 795.198L1164.62 724.487L1129.26 759.843L1093.91 724.487L1058.55 759.843L1023.2 795.198L1058.55 830.553L1093.91 795.198L1023.2 724.487L987.843 759.843L952.487 724.487L881.777 795.198M1235.33 795.198L1270.69 830.553M1235.33 795.198L1199.97 830.553L1164.62 795.198M1164.62 795.198L1199.97 759.843L1235.33 724.487L1270.69 759.843M1164.62 795.198L1129.26 830.553M952.487 795.198L917.132 830.553L881.777 795.198M952.487 795.198L917.132 759.843L881.777 724.487L846.421 759.843L811.066 724.487L740.355 795.198L775.711 830.553L811.066 795.198L740.355 724.487L705 759.843M952.487 795.198L987.843 830.553M881.777 795.198L846.421 830.553" stroke="#FF000F" stroke-width="5" stroke-linecap="round" stroke-linejoin="round"/>
<path d="M1271.2 264.711L1200.49 335.421L1235.84 370.777L1200.49 406.132L1235.84 441.487L1271.2 476.843L1306.55 441.487L1271.2 406.132L1200.49 476.843L1235.84 512.198L1200.49 547.553L1271.2 618.264M1271.2 264.711L1306.55 229.355M1271.2 264.711L1306.55 300.066L1271.2 335.421M1271.2 335.421L1235.84 300.066L1200.49 264.711M1271.2 335.421L1306.55 370.777M1271.2 547.553L1306.55 582.909L1271.2 618.264M1271.2 547.553L1235.84 582.909L1200.49 618.264L1235.84 653.619L1200.49 688.975L1271.2 759.685L1306.55 724.33L1271.2 688.975L1200.49 759.685L1235.84 795.041M1271.2 547.553L1306.55 512.198M1271.2 618.264L1306.55 653.619" stroke="#FF000F" stroke-width="5" stroke-linecap="round" stroke-linejoin="round"/>
<path d="M173.843 228.711L244.553 299.421L209.198 334.777L244.553 370.132L209.198 405.487L173.843 440.843L138.487 405.487L173.843 370.132L244.553 440.843L209.198 476.198L244.553 511.553L173.843 582.264M173.843 228.711L138.487 193.355M173.843 228.711L138.487 264.066L173.843 299.421M173.843 299.421L209.198 264.066L244.553 228.711M173.843 299.421L138.487 334.777M173.843 511.553L138.487 546.909L173.843 582.264M173.843 511.553L209.198 546.909L244.553 582.264L209.198 617.619L244.553 652.975L173.843 723.685L138.487 688.33L173.843 652.975L244.553 723.685L209.198 759.041M173.843 511.553L138.487 476.198M173.843 582.264L138.487 617.619" stroke="#FF000F" stroke-width="5" stroke-linecap="round" stroke-linejoin="round"/>
</svg>
