<svg width="572" height="113" viewBox="0 0 572 113" fill="none" xmlns="http://www.w3.org/2000/svg">
<path d="M533.33 38.8427L462.619 109.553L427.264 74.198L391.909 109.553L356.553 74.198L321.198 38.8427L356.553 3.48736L391.909 38.8427L321.198 109.553L285.843 74.198L250.487 109.553L179.777 38.8427M533.33 38.8427L568.685 3.48736M533.33 38.8427L497.975 3.48736L462.619 38.8427M462.619 38.8427L497.975 74.198L533.33 109.553L568.685 74.198M462.619 38.8427L427.264 3.48736M250.487 38.8427L215.132 3.48736L179.777 38.8427M250.487 38.8427L215.132 74.198L179.777 109.553L144.421 74.198L109.066 109.553L38.3554 38.8427L73.7107 3.48736L109.066 38.8427L38.3554 109.553L3.00001 74.198M250.487 38.8427L285.843 3.48736M179.777 38.8427L144.421 3.48736" stroke="#FF000F" stroke-width="5" stroke-linecap="round" stroke-linejoin="round"/>
</svg>
